@startuml
  interface CLI
  interface Web
  interface WebSocket
package "Malware Prevention" #lightblue {
  component express as REST
  component socket.io as socket
  folder bin #ffffff {
    component " hotms cp mp" as binName
  }
  binName --> REST

  folder deploy #ffffff {
      file "node server.js\n" as c_mp_container
      REST --> c_mp_container

  
    file "web" as web_container
    REST --> web_container
    socket ---> web_container
  
  }
  folder images #ffffff {
    collections "c_mp" as c_mpimage
    artifact "ailtire:swarm" as ailtireswarm
    c_mpimage <|-- ailtireswarm
    c_mp_container --> c_mpimage

  
      artifact "c_mp_web" as c_mp_web
      web_container --> c_mp_web
    
  }
}
CLI " hotms cp mp" -- binName
Web "/hotms/cp/mp" - REST
WebSocket ".hotms.cp.mp" -- socket

@enduml
