@startuml
  interface CLI
  interface Web
  interface WebSocket
package "hotms" #lightgreen {
  component express as REST
  component socket.io as socket
  folder bin #ffffff {
    component " hotms" as binName
  }
  binName --> REST

  folder deploy #ffffff {
      file "node server.js\ndocker-compose.yml" as hotms_container
      REST --> hotms_container

  
    file "web" as web_container
    REST --> web_container
    socket ---> web_container
  
    file "doc" as doc_container
    REST --> doc_container
    socket ---> doc_container
  
  }
  folder images #ffffff {
    collections "hotms" as hotmsimage
    artifact "ailtire:swarm" as ailtireswarm
    hotmsimage <|-- ailtireswarm
    hotms_container --> hotmsimage

  
      artifact "hotms_web" as hotms_web
      web_container --> hotms_web
    
      artifact "hotms_doc" as hotms_doc
      doc_container --> hotms_doc
    
  }
}
CLI " hotms" -- binName
Web "/hotms" - REST
WebSocket ".hotms" -- socket

@enduml
